<svg width="1600" height="900" viewBox="0 0 1600 900" fill="none" xmlns="http://www.w3.org/2000/svg">
  <rect width="1600" height="900" rx="40" fill="#F4EFE5"/>
  <rect x="72" y="72" width="1456" height="756" rx="32" fill="url(#bg)"/>
  <circle cx="1358" cy="204" r="122" fill="#F7C96C" fill-opacity="0.22"/>
  <circle cx="236" cy="744" r="164" fill="#B7D6C2" fill-opacity="0.34"/>
  <rect x="148" y="146" width="246" height="62" rx="31" fill="#F3FBF6"/>
  <text x="178" y="185" fill="#1F6B3B" font-family="Arial, sans-serif" font-size="28" font-weight="700">Diagnóstico KLASSE</text>
  <text x="148" y="322" fill="#F9FCFA" font-family="Arial, sans-serif" font-size="92" font-weight="800">A sua escola está a</text>
  <text x="148" y="430" fill="#F7C96C" font-family="Arial, sans-serif" font-size="98" font-weight="800">perder dinheiro?</text>
  <text x="148" y="518" fill="#DDEBE2" font-family="Arial, sans-serif" font-size="34" font-weight="500">Responda a 5 perguntas rápidas e descubra o nível de maturidade da sua gestão escolar.</text>
  <rect x="148" y="602" width="408" height="106" rx="28" fill="#F7C96C"/>
  <text x="200" y="668" fill="#143A23" font-family="Arial, sans-serif" font-size="40" font-weight="800">Fazer diagnóstico</text>
  <rect x="1008" y="238" width="360" height="320" rx="30" fill="#F6FAF7"/>
  <text x="1052" y="302" fill="#143A23" font-family="Arial, sans-serif" font-size="34" font-weight="800">Indicadores</text>
  <rect x="1052" y="336" width="272" height="18" rx="9" fill="#D8E7DD"/>
  <rect x="1052" y="336" width="224" height="18" rx="9" fill="#1F6B3B"/>
  <text x="1052" y="402" fill="#3A4E43" font-family="Arial, sans-serif" font-size="28" font-weight="700">Secretaria sobrecarregada</text>
  <text x="1052" y="448" fill="#3A4E43" font-family="Arial, sans-serif" font-size="28" font-weight="700">Cobrança manual</text>
  <text x="1052" y="494" fill="#3A4E43" font-family="Arial, sans-serif" font-size="28" font-weight="700">Falta de visibilidade</text>
  <rect x="1008" y="590" width="360" height="142" rx="30" fill="#143A23"/>
  <text x="1052" y="646" fill="#F7C96C" font-family="Arial, sans-serif" font-size="26" font-weight="700">Use o seu link parceiro</text>
  <text x="1052" y="690" fill="#F4EFE5" font-family="Arial, sans-serif" font-size="32" font-weight="800">klasse.ao/diagnostico</text>
  <text x="1052" y="724" fill="#C7D8CD" font-family="Arial, sans-serif" font-size="24" font-weight="600">+ ref=SEUCODIGO</text>
  <defs>
    <linearGradient id="bg" x1="72" y1="72" x2="1528" y2="828" gradientUnits="userSpaceOnUse">
      <stop stop-color="#1F6B3B"/>
      <stop offset="1" stop-color="#295B3B"/>
    </linearGradient>
  </defs>
</svg>
